<svg width="28" height="33" viewBox="0 0 28 33" fill="none" xmlns="http://www.w3.org/2000/svg">
<path d="M18.1323 16.5318C19.3587 15.805 20.376 14.7674 21.0836 13.5216C21.7911 12.2758 22.1645 10.8649 22.1667 9.42857V3.53571C22.1667 2.59798 21.7979 1.69866 21.1415 1.03559C20.4852 0.372512 19.5949 0 18.6667 0H9.33333C8.40508 0 7.51484 0.372512 6.85846 1.03559C6.20208 1.69866 5.83333 2.59798 5.83333 3.53571V9.42857C5.83551 10.8649 6.20886 12.2758 6.91644 13.5216C7.62401 14.7674 8.6413 15.805 9.86767 16.5318C7.19936 16.6944 4.69291 17.879 2.85934 19.8441C1.02578 21.8092 0.0031678 24.4067 0 27.1071V30.6429C0 31.268 0.245833 31.8676 0.683417 32.3096C1.121 32.7517 1.71449 33 2.33333 33H25.6667C26.2855 33 26.879 32.7517 27.3166 32.3096C27.7542 31.8676 28 31.268 28 30.6429V27.1071C27.9968 24.4067 26.9742 21.8092 25.1407 19.8441C23.3071 17.879 20.8006 16.6944 18.1323 16.5318ZM9.33333 2.35714H18.6667C18.9761 2.35714 19.2728 2.48131 19.4916 2.70234C19.7104 2.92336 19.8333 3.22314 19.8333 3.53571V7.07143H8.16667V3.53571C8.16667 3.22314 8.28958 2.92336 8.50838 2.70234C8.72717 2.48131 9.02391 2.35714 9.33333 2.35714ZM8.16667 9.42857H19.8333C19.8333 10.9915 19.2188 12.4903 18.1248 13.5955C17.0308 14.7006 15.5471 15.3214 14 15.3214C12.4529 15.3214 10.9692 14.7006 9.87521 13.5955C8.78125 12.4903 8.16667 10.9915 8.16667 9.42857ZM8.16667 23.5714C8.39741 23.5714 8.62297 23.6406 8.81483 23.7701C9.00669 23.8996 9.15622 24.0836 9.24453 24.299C9.33283 24.5143 9.35593 24.7513 9.31092 24.9799C9.2659 25.2085 9.15479 25.4186 8.99162 25.5834C8.82846 25.7482 8.62058 25.8605 8.39427 25.9059C8.16796 25.9514 7.93338 25.9281 7.7202 25.8389C7.50702 25.7497 7.32481 25.5986 7.19662 25.4048C7.06842 25.211 7 24.9831 7 24.75C7 24.4374 7.12292 24.1376 7.34171 23.9166C7.5605 23.6956 7.85725 23.5714 8.16667 23.5714ZM2.33333 30.6429V27.1071C2.33544 25.5479 2.77494 24.0211 3.60088 22.7038C4.42683 21.3866 5.6054 20.3327 7 19.6645V21.4323C6.22158 21.7103 5.56552 22.2574 5.14776 22.9768C4.73001 23.6962 4.57746 24.5417 4.71707 25.3637C4.85669 26.1858 5.27948 26.9315 5.91073 27.4691C6.54198 28.0067 7.34103 28.3015 8.16667 28.3015C8.9923 28.3015 9.79136 28.0067 10.4226 27.4691C11.0538 26.9315 11.4766 26.1858 11.6163 25.3637C11.7559 24.5417 11.6033 23.6962 11.1856 22.9768C10.7678 22.2574 10.1117 21.7103 9.33333 21.4323V18.9573C9.71936 18.8959 10.1092 18.8624 10.5 18.8571H17.5V20.2031C16.5012 20.4636 15.6159 21.0511 14.9827 21.8738C14.3494 22.6964 14.0039 23.7079 14 24.75V27.1071C14 27.4197 14.1229 27.7195 14.3417 27.9405C14.5605 28.1615 14.8572 28.2857 15.1667 28.2857H16.3333C16.6428 28.2857 16.9395 28.1615 17.1583 27.9405C17.3771 27.7195 17.5 27.4197 17.5 27.1071C17.5 26.7946 17.3771 26.4948 17.1583 26.2738C16.9395 26.0527 16.6428 25.9286 16.3333 25.9286V24.75C16.3333 24.1248 16.5792 23.5253 17.0168 23.0833C17.4543 22.6412 18.0478 22.3929 18.6667 22.3929C19.2855 22.3929 19.879 22.6412 20.3166 23.0833C20.7542 23.5253 21 24.1248 21 24.75V25.9286C20.6906 25.9286 20.3938 26.0527 20.175 26.2738C19.9562 26.4948 19.8333 26.7946 19.8333 27.1071C19.8333 27.4197 19.9562 27.7195 20.175 27.9405C20.3938 28.1615 20.6906 28.2857 21 28.2857H22.1667C22.4761 28.2857 22.7728 28.1615 22.9916 27.9405C23.2104 27.7195 23.3333 27.4197 23.3333 27.1071V24.75C23.3295 23.7079 22.9839 22.6964 22.3507 21.8738C21.7174 21.0511 20.8322 20.4636 19.8333 20.2031V19.2107C21.5163 19.7194 22.9923 20.762 24.043 22.1842C25.0936 23.6064 25.6629 25.3326 25.6667 27.1071V30.6429H2.33333Z" fill="#2D847A"/>
</svg>
