<svg width="23" height="23" viewBox="0 0 23 23" fill="none" xmlns="http://www.w3.org/2000/svg">
<path d="M10.6835 15.2835C10.634 15.3381 10.588 15.3957 10.5455 15.456C10.502 15.5201 10.4672 15.5897 10.442 15.663C10.4088 15.7282 10.3856 15.7979 10.373 15.87C10.3674 15.9466 10.3674 16.0234 10.373 16.1C10.3691 16.2508 10.4006 16.4005 10.465 16.537C10.5167 16.6797 10.5991 16.8093 10.7064 16.9166C10.8137 17.0239 10.9433 17.1063 11.086 17.158C11.2237 17.2188 11.3725 17.2503 11.523 17.2503C11.6735 17.2503 11.8223 17.2188 11.96 17.158C12.1027 17.1063 12.2323 17.0239 12.3396 16.9166C12.447 16.8093 12.5294 16.6797 12.581 16.537C12.6321 16.3972 12.6555 16.2488 12.65 16.1C12.6509 15.9486 12.6219 15.7986 12.5646 15.6585C12.5074 15.5184 12.4231 15.391 12.3165 15.2835C12.2096 15.1757 12.0824 15.0902 11.9423 15.0318C11.8021 14.9734 11.6518 14.9433 11.5 14.9433C11.3482 14.9433 11.1979 14.9734 11.0577 15.0318C10.9176 15.0902 10.7904 15.1757 10.6835 15.2835ZM11.5 0C9.22552 0 7.00211 0.674463 5.11095 1.9381C3.21978 3.20173 1.7458 4.99779 0.87539 7.09914C0.00498277 9.20049 -0.222756 11.5128 0.220974 13.7435C0.664704 15.9743 1.75997 18.0234 3.36828 19.6317C4.97658 21.24 7.02568 22.3353 9.25646 22.779C11.4872 23.2228 13.7995 22.995 15.9009 22.1246C18.0022 21.2542 19.7983 19.7802 21.0619 17.8891C22.3255 15.9979 23 13.7745 23 11.5C23 9.98979 22.7025 8.49438 22.1246 7.09914C21.5467 5.70389 20.6996 4.43614 19.6317 3.36827C18.5639 2.3004 17.2961 1.45331 15.9009 0.875385C14.5056 0.297456 13.0102 0 11.5 0ZM11.5 20.7C9.68042 20.7 7.90169 20.1604 6.38876 19.1495C4.87583 18.1386 3.69664 16.7018 3.00031 15.0207C2.30399 13.3396 2.1218 11.4898 2.47678 9.70517C2.83176 7.92054 3.70798 6.28126 4.99462 4.99462C6.28126 3.70797 7.92055 2.83176 9.70517 2.47677C11.4898 2.12179 13.3396 2.30398 15.0207 3.00031C16.7018 3.69663 18.1386 4.87582 19.1495 6.38875C20.1604 7.90168 20.7 9.68041 20.7 11.5C20.7 13.94 19.7307 16.28 18.0054 18.0054C16.2801 19.7307 13.94 20.7 11.5 20.7ZM11.5 5.75C10.894 5.74961 10.2986 5.90884 9.77375 6.21166C9.24886 6.51448 8.81299 6.95021 8.51 7.475C8.4268 7.60589 8.37093 7.75226 8.34575 7.9053C8.32058 8.05834 8.32663 8.2149 8.36353 8.36554C8.40043 8.51619 8.46742 8.65781 8.56047 8.7819C8.65352 8.90598 8.77071 9.00996 8.90499 9.08758C9.03927 9.1652 9.18787 9.21485 9.34184 9.23355C9.4958 9.25225 9.65196 9.23962 9.80092 9.19641C9.94988 9.15319 10.0886 9.08029 10.2086 8.98209C10.3287 8.8839 10.4276 8.76243 10.4995 8.625C10.6008 8.4495 10.7467 8.3039 10.9224 8.20292C11.0981 8.10195 11.2974 8.04919 11.5 8.05C11.805 8.05 12.0975 8.17116 12.3132 8.38682C12.5288 8.60249 12.65 8.895 12.65 9.2C12.65 9.505 12.5288 9.7975 12.3132 10.0132C12.0975 10.2288 11.805 10.35 11.5 10.35C11.195 10.35 10.9025 10.4712 10.6868 10.6868C10.4712 10.9025 10.35 11.195 10.35 11.5V12.65C10.35 12.955 10.4712 13.2475 10.6868 13.4632C10.9025 13.6788 11.195 13.8 11.5 13.8C11.805 13.8 12.0975 13.6788 12.3132 13.4632C12.5288 13.2475 12.65 12.955 12.65 12.65V12.443C13.4106 12.167 14.05 11.6325 14.4564 10.9329C14.8628 10.2333 15.0104 9.41308 14.8734 8.61567C14.7364 7.81826 14.3235 7.09437 13.7068 6.57054C13.0902 6.04671 12.3091 5.75628 11.5 5.75Z" fill="#2D847A"/>
</svg>
