<svg width="27" height="30" viewBox="0 0 27 30" fill="none" xmlns="http://www.w3.org/2000/svg">
<path fill-rule="evenodd" clip-rule="evenodd" d="M9.34615 0C9.91968 0 10.3846 0.46494 10.3846 1.03846V2.78392C11.3112 2.76923 12.3408 2.76923 13.4846 2.76923H13.5154C14.6592 2.76923 15.6888 2.76923 16.6154 2.78392V1.03846C16.6154 0.46494 17.0803 0 17.6538 0C18.2274 0 18.6923 0.46494 18.6923 1.03846V2.85726C20.7857 2.98851 22.3939 3.32771 23.7182 4.28975C24.394 4.78081 24.9884 5.3752 25.4794 6.05109C26.2907 7.16754 26.6538 8.47515 26.8287 10.089C27 11.6704 27 13.6637 27 16.2065V16.2852C27 17.891 27 19.2719 26.9593 20.4587C26.8704 23.0526 26.5897 24.9592 25.4794 26.4874C24.9884 27.1632 24.394 27.7577 23.7182 28.2486C22.19 29.359 20.2834 29.6396 17.6894 29.7285C16.5024 29.7692 15.1214 29.7692 13.515 29.7692H13.4373C10.8944 29.7692 8.90115 29.7692 7.31974 29.598C5.70592 29.4231 4.39831 29.0599 3.28187 28.2486C2.60597 27.7577 2.01158 27.1632 1.52052 26.4874C0.709366 25.3709 0.346168 24.0634 0.171319 22.4495C-1.36793e-05 20.8681 -1.36005e-05 18.8748 2.45647e-07 16.3318V16.2066C-1.36005e-05 13.6637 -1.36793e-05 11.6704 0.171319 10.089C0.346168 8.47515 0.709366 7.16754 1.52052 6.05109C2.01158 5.3752 2.60597 4.78081 3.28187 4.28975C4.60599 3.32771 6.21426 2.98851 8.30769 2.85726V1.03846C8.30769 0.46494 8.77263 0 9.34615 0ZM8.30769 4.93927C6.42178 5.06897 5.33322 5.36656 4.50265 5.97002C4.00308 6.33298 3.56375 6.77231 3.20079 7.27188C2.68974 7.97527 2.39185 8.87556 2.23615 10.3127C2.07835 11.7692 2.07692 13.6501 2.07692 16.2692C2.07692 18.8884 2.07835 20.7692 2.23615 22.2258C2.39185 23.6629 2.68974 24.5632 3.20079 25.2666C3.56375 25.7662 4.00308 26.2055 4.50265 26.5684C5.20604 27.0795 6.10633 27.3773 7.54345 27.5331C8.99999 27.6909 10.8809 27.6923 13.5 27.6923C14.6746 27.6923 15.704 27.6922 16.6179 27.6774C16.624 27.0201 16.6445 26.5363 16.7134 26.1007C17.253 22.694 19.9248 20.0222 23.3315 19.4826C23.7671 19.4137 24.2508 19.3932 24.9081 19.3871C24.9231 18.4733 24.9231 17.4438 24.9231 16.2692C24.9231 13.6501 24.9217 11.7692 24.7638 10.3127C24.6081 8.87556 24.3102 7.97527 23.7992 7.27188C23.4363 6.77231 22.9969 6.33298 22.4974 5.97002C21.6667 5.36656 20.5783 5.06897 18.6923 4.93927V5.19231C18.6923 5.76583 18.2274 6.23077 17.6538 6.23077C17.0803 6.23077 16.6154 5.76583 16.6154 5.19231V4.86109C15.7021 4.84622 14.6736 4.84615 13.5 4.84615C12.3264 4.84615 11.2979 4.84622 10.3846 4.86109V5.19231C10.3846 5.76583 9.91968 6.23077 9.34615 6.23077C8.77263 6.23077 8.30769 5.76583 8.30769 5.19231V4.93927ZM24.8298 21.4654C24.269 21.4719 23.9403 21.4891 23.6564 21.534C21.1384 21.9329 19.1636 23.9076 18.7647 26.4257C18.7199 26.7095 18.7027 27.0382 18.6962 27.599C20.5797 27.4691 21.6673 27.1714 22.4974 26.5684C22.9969 26.2055 23.4363 25.7662 23.7992 25.2666C24.4023 24.4365 24.6999 23.3489 24.8298 21.4654Z" fill="white"/>
<path d="M7.96137 10.7308C7.96137 11.4955 7.34146 12.1154 6.57675 12.1154C5.81206 12.1154 5.19214 11.4955 5.19214 10.7308C5.19214 9.96611 5.81206 9.34619 6.57675 9.34619C7.34146 9.34619 7.96137 9.96611 7.96137 10.7308ZM7.96137 16.2693C7.96137 17.034 7.34146 17.6539 6.57675 17.6539C5.81206 17.6539 5.19214 17.034 5.19214 16.2693C5.19214 15.5045 5.81206 14.8847 6.57675 14.8847C7.34146 14.8847 7.96137 15.5045 7.96137 16.2693ZM14.8844 10.7308C14.8844 11.4955 14.2646 12.1154 13.4998 12.1154C12.7351 12.1154 12.1152 11.4955 12.1152 10.7308C12.1152 9.96611 12.7351 9.34619 13.4998 9.34619C14.2646 9.34619 14.8844 9.96611 14.8844 10.7308ZM14.8844 16.2693C14.8844 17.034 14.2646 17.6539 13.4998 17.6539C12.7351 17.6539 12.1152 17.034 12.1152 16.2693C12.1152 15.5045 12.7351 14.8847 13.4998 14.8847C14.2646 14.8847 14.8844 15.5045 14.8844 16.2693ZM14.8844 21.8077C14.8844 22.5725 14.2646 23.1923 13.4998 23.1923C12.7351 23.1923 12.1152 22.5725 12.1152 21.8077C12.1152 21.043 12.7351 20.4231 13.4998 20.4231C14.2646 20.4231 14.8844 21.043 14.8844 21.8077ZM21.8075 10.7308C21.8075 11.4955 21.1876 12.1154 20.4229 12.1154C19.6582 12.1154 19.0383 11.4955 19.0383 10.7308C19.0383 9.96611 19.6582 9.34619 20.4229 9.34619C21.1876 9.34619 21.8075 9.96611 21.8075 10.7308ZM21.8075 16.2693C21.8075 17.034 21.1876 17.6539 20.4229 17.6539C19.6582 17.6539 19.0383 17.034 19.0383 16.2693C19.0383 15.5045 19.6582 14.8847 20.4229 14.8847C21.1876 14.8847 21.8075 15.5045 21.8075 16.2693ZM7.96137 21.8077C7.96137 22.5725 7.34146 23.1923 6.57675 23.1923C5.81206 23.1923 5.19214 22.5725 5.19214 21.8077C5.19214 21.043 5.81206 20.4231 6.57675 20.4231C7.34146 20.4231 7.96137 21.043 7.96137 21.8077Z" fill="white"/>
</svg>
