<svg width="31" height="23" viewBox="0 0 31 23" fill="none" xmlns="http://www.w3.org/2000/svg">
<path d="M11.1944 0C5.02197 0 0 5.02197 0 11.1944C0 17.3668 5.02197 22.3888 11.1944 22.3888C17.3668 22.3888 22.3888 17.3668 22.3888 11.1944C22.3888 5.02197 17.3668 0 11.1944 0ZM11.1944 20.6665C5.97177 20.6665 1.72221 16.417 1.72221 11.1944C1.72221 5.97177 5.97177 1.72221 11.1944 1.72221C16.417 1.72221 20.6665 5.97177 20.6665 11.1944C20.6665 16.417 16.417 20.6665 11.1944 20.6665Z" fill="#2D847A"/>
<path d="M11.1066 6.90189C11.1376 6.90533 11.1643 6.91997 11.1953 6.91997C11.2263 6.91997 11.253 6.90533 11.284 6.90189C11.7238 6.92416 12.1383 7.1143 12.442 7.43311C12.7458 7.75193 12.9157 8.17513 12.9166 8.61549C12.9166 8.84387 13.0074 9.06289 13.1688 9.22438C13.3303 9.38587 13.5494 9.47659 13.7777 9.47659C14.0061 9.47659 14.2252 9.38587 14.3866 9.22438C14.5481 9.06289 14.6389 8.84387 14.6389 8.61549C14.6389 7.01469 13.5375 5.67826 12.0564 5.29334L12.0555 4.30996C12.0555 4.08158 11.9648 3.86255 11.8033 3.70106C11.6418 3.53957 11.4228 3.44885 11.1944 3.44885C10.966 3.44885 10.747 3.53957 10.5855 3.70106C10.424 3.86255 10.3333 4.08158 10.3333 4.30996L10.3342 5.29334C8.85222 5.67826 7.75 7.01469 7.75 8.61549C7.75 10.5151 9.29482 12.0599 11.1944 12.0599C12.1442 12.0599 12.9166 12.8323 12.9166 13.7821C12.9166 14.7319 12.1442 15.5043 11.1944 15.5043C10.2446 15.5043 9.47221 14.7319 9.47221 13.7821C9.47221 13.5537 9.38149 13.3347 9.22 13.1732C9.05851 13.0117 8.83949 12.921 8.61111 12.921C8.38273 12.921 8.1637 13.0117 8.00221 13.1732C7.84072 13.3347 7.75 13.5537 7.75 13.7821C7.75 15.3829 8.85222 16.7194 10.3333 17.1043L10.3342 18.1144C10.3342 18.3427 10.4249 18.5618 10.5864 18.7232C10.7479 18.8847 10.9669 18.9755 11.1953 18.9755C11.4237 18.9755 11.6427 18.8847 11.8042 18.7232C11.9657 18.5618 12.0564 18.3427 12.0564 18.1144L12.0555 17.1043C13.5366 16.7194 14.6389 15.3829 14.6389 13.7821C14.6389 11.8825 13.094 10.3377 11.1944 10.3377C10.2446 10.3377 9.47221 9.56529 9.47221 8.61549C9.47384 8.17504 9.64416 7.75195 9.94816 7.43322C10.2522 7.11449 10.6667 6.92435 11.1066 6.90189ZM30.7476 2.84263L28.1642 0.259314C28.0843 0.179277 27.9895 0.115781 27.885 0.0724584C27.7805 0.0291355 27.6685 0.00683594 27.5554 0.00683594C27.4424 0.00683594 27.3304 0.0291355 27.2259 0.0724584C27.1214 0.115781 27.0265 0.179277 26.9466 0.259314L24.3633 2.84263C24.2019 3.0041 24.1112 3.22309 24.1112 3.45143C24.1112 3.67978 24.2019 3.89877 24.3633 4.06024C24.5248 4.2217 24.7438 4.31241 24.9721 4.31241C25.2005 4.31241 25.4195 4.2217 25.5809 4.06024L26.6943 2.94683V18.0902C26.6943 19.5145 25.5353 20.6736 24.111 20.6736H20.6666C20.4382 20.6736 20.2192 20.7643 20.0577 20.9258C19.8962 21.0873 19.8055 21.3063 19.8055 21.5347C19.8055 21.763 19.8962 21.9821 20.0577 22.1436C20.2192 22.305 20.4382 22.3958 20.6666 22.3958H24.111C26.4851 22.3958 28.4165 20.4643 28.4165 18.0902V2.94683L29.53 4.06024C29.6097 4.14048 29.7046 4.20416 29.8091 4.24761C29.9136 4.29106 30.0256 4.31343 30.1388 4.31343C30.2519 4.31343 30.364 4.29106 30.4684 4.24761C30.5729 4.20416 30.6678 4.14048 30.7476 4.06024C30.8276 3.98034 30.8911 3.88544 30.9344 3.78097C30.9777 3.67651 31 3.56453 31 3.45143C31 3.33834 30.9777 3.22636 30.9344 3.1219C30.8911 3.01743 30.8276 2.92253 30.7476 2.84263Z" fill="#2D847A"/>
</svg>
