<svg width="21" height="21" viewBox="0 0 21 21" fill="none" xmlns="http://www.w3.org/2000/svg">
<path d="M14.2319 4.05163C11.9991 4.05163 10.155 2.62499 7.34783 2.62499C6.30804 2.62499 5.37663 2.8048 4.51263 3.11771C4.63237 2.80987 4.68333 2.48026 4.66204 2.1513C4.58821 0.984977 3.61692 0.0494504 2.43075 0.0019543C1.09771 -0.0514481 0 0.996502 0 2.29686C0 3.07723 0.395708 3.76625 1 4.18133V20.0156C1 20.5593 1.44771 21 2 21H2.66667C3.21896 21 3.66667 20.5593 3.66667 20.0156V16.1437C4.84629 15.6489 6.31592 15.2364 8.43479 15.2364C10.6676 15.2364 12.5116 16.663 15.3188 16.663C17.3259 16.663 18.93 15.9947 20.4232 14.9872C20.785 14.7431 21 14.3379 21 13.9061V3.93523C21 2.97575 19.9888 2.34095 19.1048 2.74512C17.674 3.39924 15.9192 4.05163 14.2319 4.05163Z" fill="#2D847A"/>
</svg>
