<svg width="27" height="27" viewBox="0 0 27 27" fill="none" xmlns="http://www.w3.org/2000/svg">
<path d="M26.3077 13.7873C26.3077 12.6973 26.2162 11.9019 26.0184 11.077H13.1538V15.9968H20.705C20.5528 17.2194 19.7307 19.0606 17.9038 20.2979L17.8782 20.4626L21.9457 23.5114L22.2275 23.5386C24.8156 21.2259 26.3077 17.8233 26.3077 13.7873Z" fill="#4285F4"/>
<path d="M13.3123 26.9999C16.9171 26.9999 19.9435 25.7725 22.154 23.6553L17.9408 20.28C16.8133 21.0932 15.3001 21.6608 13.3123 21.6608C9.78152 21.6608 6.78484 19.2522 5.71661 15.923L5.56003 15.9367L1.43866 19.2353L1.38477 19.3902C3.58034 23.9007 8.09024 26.9999 13.3123 26.9999Z" fill="#34A853"/>
<path d="M5.53846 16.1106C5.26725 15.2993 5.11029 14.43 5.11029 13.5319C5.11029 12.6336 5.26725 11.7644 5.52419 10.9531L5.51701 10.7803L1.5017 7.61548L1.37032 7.6789C0.499614 9.44638 0 11.4312 0 13.5319C0 15.6325 0.499614 17.6172 1.37032 19.3847L5.53846 16.1106Z" fill="#FBBC05"/>
<path d="M13.2614 5.33899C15.7578 5.33899 17.4417 6.45895 18.402 7.39487L22.154 3.59003C19.8497 1.36545 16.8509 0 13.2614 0C8.06164 0 3.57098 3.09906 1.38477 7.60958L5.68336 11.0769C6.7618 7.74771 9.7457 5.33899 13.2614 5.33899Z" fill="#EB4335"/>
</svg>
