<svg width="84" height="54" viewBox="0 0 84 54" fill="none" xmlns="http://www.w3.org/2000/svg">
<rect y="5" width="44" height="44" rx="10" fill="#2D847A" fill-opacity="0.5"/>
<path d="M28.4873 27.5807H27.7373V29.0807H28.4873V27.5807ZM37.7103 29.0807C38.1245 29.0807 38.4603 28.7449 38.4603 28.3307C38.4603 27.9165 38.1245 27.5807 37.7103 27.5807V29.0807ZM28.4873 29.0807H37.7103V27.5807H28.4873V29.0807Z" fill="white" fill-opacity="0.5"/>
<path d="M33.0986 32.942V23.7191" stroke="white" stroke-opacity="0.5" stroke-width="1.5" stroke-linecap="round"/>
<path d="M31.5909 27.7094H27.8663C27.6987 27.7094 27.5435 27.6894 27.4255 27.8012L25.7619 29.4648L23.5085 18.1858C23.4526 17.9065 23.2105 17.7016 22.9249 17.6892C22.786 17.6819 22.6488 17.7222 22.5359 17.8035C22.423 17.8847 22.3413 18.0021 22.3041 18.1361L17.8346 33.7728L13.545 23.0462C13.4519 22.8166 13.2408 22.6676 12.9925 22.6552C12.8727 22.6496 12.7538 22.6789 12.6502 22.7395C12.5466 22.8001 12.4629 22.8894 12.409 22.9966L10.0997 27.6212H6.75994C6.41851 27.6212 6.13916 27.9005 6.13916 28.2419C6.13916 28.5833 6.41851 28.8626 6.75994 28.8626H10.4846C10.7205 28.8626 10.9378 28.7323 11.0371 28.5212L12.8994 24.7905L17.3504 35.9205C17.4497 36.1564 17.6794 36.3116 17.9339 36.3116H17.9649C18.2319 36.2992 18.4553 36.1192 18.5298 35.8647L22.7946 20.9481L24.7748 30.8552C24.7972 30.9654 24.8489 31.0675 24.9246 31.1505C25.0003 31.2336 25.0971 31.2947 25.2047 31.3271C25.3124 31.3596 25.4268 31.3623 25.5358 31.335C25.6448 31.3076 25.7444 31.2512 25.8239 31.1718L28.1208 28.8626H31.5909C31.9324 28.8626 32.2117 28.5833 32.2117 28.2419C32.2117 27.9005 31.9324 27.7094 31.5909 27.7094Z" fill="white" fill-opacity="0.5"/>
<rect x="30" width="54" height="54" rx="10" fill="#2D847A"/>
<path d="M64.9619 27.8828H64.2119V29.3828H64.9619V27.8828ZM76.281 29.3828C76.6952 29.3828 77.031 29.047 77.031 28.6328C77.031 28.2186 76.6952 27.8828 76.281 27.8828V29.3828ZM64.9619 29.3828H76.281V27.8828H64.9619V29.3828Z" fill="white"/>
<path d="M70.6211 34.2922V22.9732" stroke="white" stroke-width="1.5" stroke-linecap="round"/>
<path d="M68.7709 27.8706H64.1998C63.9941 27.8706 63.8036 27.8461 63.6589 27.9832L61.6171 30.0249L58.8515 16.1825C58.783 15.8397 58.4858 15.5883 58.1354 15.5731C57.9649 15.5641 57.7965 15.6136 57.658 15.7133C57.5194 15.813 57.4191 15.9571 57.3735 16.1216L51.8881 35.312L46.6237 22.1476C46.5094 21.8657 46.2504 21.6829 45.9456 21.6677C45.7985 21.6608 45.6526 21.6968 45.5255 21.7711C45.3984 21.8455 45.2956 21.9551 45.2295 22.0867L42.3953 27.7623H38.2965C37.8775 27.7623 37.5347 28.1051 37.5347 28.5241C37.5347 28.9431 37.8775 29.2859 38.2965 29.2859H42.8677C43.1572 29.2859 43.4238 29.1259 43.5457 28.8669L45.8313 24.2883L51.2939 37.9479C51.4158 38.2374 51.6977 38.4278 52.01 38.4278H52.0481C52.3757 38.4126 52.65 38.1917 52.7414 37.8793L57.9754 19.5726L60.4057 31.7314C60.4331 31.8666 60.4967 31.9918 60.5896 32.0938C60.6825 32.1958 60.8013 32.2707 60.9333 32.3105C61.0654 32.3504 61.2058 32.3537 61.3396 32.3201C61.4734 32.2866 61.5956 32.2174 61.6933 32.1199L64.5121 29.2859H68.7709C69.19 29.2859 69.5328 28.9431 69.5328 28.5241C69.5328 28.1051 69.19 27.8706 68.7709 27.8706Z" fill="white"/>
</svg>
