<svg width="23" height="23" viewBox="0 0 23 23" fill="none" xmlns="http://www.w3.org/2000/svg">
<path d="M23 11.5C23 17.8528 17.8528 23 11.5 23C5.14718 23 0 17.8528 0 11.5C0 5.14718 5.14718 0 11.5 0C17.8528 0 23 5.14718 23 11.5ZM16.3411 10.1599L12.9839 13.6609V5.19355C12.9839 4.57681 12.4877 4.08065 11.871 4.08065H11.129C10.5123 4.08065 10.0161 4.57681 10.0161 5.19355V13.6609L6.65887 10.1599C6.22762 9.71008 5.50887 9.70081 5.06835 10.1413L4.5629 10.6514C4.12702 11.0873 4.12702 11.7921 4.5629 12.2234L10.7117 18.3768C11.1476 18.8127 11.8524 18.8127 12.2837 18.3768L18.4371 12.2234C18.873 11.7875 18.873 11.0827 18.4371 10.6514L17.9317 10.1413C17.4911 9.70081 16.7724 9.71008 16.3411 10.1599Z" fill="#0D3733"/>
</svg>
