<svg width="47" height="47" viewBox="0 0 47 47" fill="none" xmlns="http://www.w3.org/2000/svg">
<path d="M42.36 0H28.14C25.5774 0 23.5 2.0774 23.5 4.64V4.65C23.5 7.2126 25.5774 9.29 28.14 9.29H42.36C44.9226 9.29 47 7.2126 47 4.65V4.64C47 2.0774 44.9226 0 42.36 0Z" fill="#3A0CA3"/>
<path d="M5.04979 0H4.91979C2.35718 0 0.279785 2.0774 0.279785 4.64V4.65C0.279785 7.2126 2.35718 9.29 4.91979 9.29H5.04979C7.61239 9.29 9.68979 7.2126 9.68979 4.65V4.64C9.68979 2.0774 7.61239 0 5.04979 0Z" fill="#F72585"/>
<path d="M42.29 37.5901H42.16C39.5974 37.5901 37.52 39.6675 37.52 42.2301V42.2401C37.52 44.8027 39.5974 46.8801 42.16 46.8801H42.29C44.8526 46.8801 46.93 44.8027 46.93 42.2401V42.2301C46.93 39.6675 44.8526 37.5901 42.29 37.5901Z" fill="#F72585"/>
<path d="M19.3302 37.5901H5.11022C2.54761 37.5901 0.470215 39.6675 0.470215 42.2301V42.2401C0.470215 44.8027 2.54761 46.8801 5.11022 46.8801H19.3302C21.8928 46.8801 23.9702 44.8027 23.9702 42.2401V42.2301C23.9702 39.6675 21.8928 37.5901 19.3302 37.5901Z" fill="#3A0CA3"/>
<path d="M42.35 18.8501H4.64C2.0774 18.8501 0 20.9275 0 23.4901V23.5001C0 26.0627 2.0774 28.1401 4.64 28.1401H42.35C44.9126 28.1401 46.99 26.0627 46.99 23.5001V23.4901C46.99 20.9275 44.9126 18.8501 42.35 18.8501Z" fill="#4361EE"/>
</svg>
