<svg width="54" height="54" viewBox="0 0 54 54" fill="none" xmlns="http://www.w3.org/2000/svg">
<rect width="54" height="54" rx="10" fill="#2D847A"/>
<path d="M34.9619 27.8826H34.2119V29.3826H34.9619V27.8826ZM46.281 29.3826C46.6952 29.3826 47.031 29.0468 47.031 28.6326C47.031 28.2184 46.6952 27.8826 46.281 27.8826V29.3826ZM34.9619 29.3826H46.281V27.8826H34.9619V29.3826Z" fill="white"/>
<path d="M40.6213 34.292V22.9729" stroke="white" stroke-width="1.5" stroke-linecap="round"/>
<path d="M38.7712 27.8706H34.2C33.9943 27.8706 33.8039 27.8461 33.6591 27.9832L31.6173 30.0249L28.8518 16.1825C28.7832 15.8397 28.4861 15.5883 28.1356 15.5731C27.9652 15.5641 27.7967 15.6136 27.6582 15.7133C27.5197 15.813 27.4193 15.9571 27.3738 16.1216L21.8884 35.312L16.6239 22.1476C16.5096 21.8657 16.2506 21.6829 15.9459 21.6677C15.7988 21.6608 15.6528 21.6968 15.5257 21.7711C15.3986 21.8455 15.2958 21.9551 15.2297 22.0867L12.3956 27.7623H8.29677C7.87775 27.7623 7.53491 28.1051 7.53491 28.5241C7.53491 28.9431 7.87775 29.2859 8.29677 29.2859H12.8679C13.1574 29.2859 13.4241 29.1259 13.546 28.8669L15.8316 24.2883L21.2941 37.9479C21.416 38.2374 21.6979 38.4278 22.0103 38.4278H22.0484C22.376 38.4126 22.6502 38.1917 22.7416 37.8793L27.9756 19.5726L30.406 31.7314C30.4334 31.8666 30.4969 31.9918 30.5898 32.0938C30.6827 32.1958 30.8015 32.2707 30.9336 32.3105C31.0657 32.3504 31.2061 32.3537 31.3399 32.3201C31.4737 32.2866 31.5959 32.2174 31.6935 32.1199L34.5124 29.2859H38.7712C39.1902 29.2859 39.5331 28.9431 39.5331 28.5241C39.5331 28.1051 39.1902 27.8706 38.7712 27.8706Z" fill="white"/>
</svg>
