<svg width="18" height="24" viewBox="0 0 18 24" fill="none" xmlns="http://www.w3.org/2000/svg">
<path d="M10.2206 6.20535V0H1.09506C0.488215 0 0 0.488215 0 1.09506V22.2663C0 22.8731 0.488215 23.3613 1.09506 23.3613H16.4259C17.0328 23.3613 17.521 22.8731 17.521 22.2663V7.30042H11.3156C10.7134 7.30042 10.2206 6.80764 10.2206 6.20535ZM13.1407 16.9735C13.1407 17.2746 12.8944 17.521 12.5932 17.521H4.92778C4.62664 17.521 4.38025 17.2746 4.38025 16.9735V16.6084C4.38025 16.3073 4.62664 16.0609 4.92778 16.0609H12.5932C12.8944 16.0609 13.1407 16.3073 13.1407 16.6084V16.9735ZM13.1407 14.0533C13.1407 14.3544 12.8944 14.6008 12.5932 14.6008H4.92778C4.62664 14.6008 4.38025 14.3544 4.38025 14.0533V13.6883C4.38025 13.3871 4.62664 13.1407 4.92778 13.1407H12.5932C12.8944 13.1407 13.1407 13.3871 13.1407 13.6883V14.0533ZM13.1407 10.7681V11.1331C13.1407 11.4343 12.8944 11.6807 12.5932 11.6807H4.92778C4.62664 11.6807 4.38025 11.4343 4.38025 11.1331V10.7681C4.38025 10.467 4.62664 10.2206 4.92778 10.2206H12.5932C12.8944 10.2206 13.1407 10.467 13.1407 10.7681ZM17.521 5.562V5.84033H11.6807V0H11.959C12.251 0 12.5293 0.114069 12.7347 0.319393L17.2016 4.7909C17.4069 4.99622 17.521 5.27455 17.521 5.562Z" fill="#0D3733"/>
</svg>
