<svg width="17" height="17" viewBox="0 0 17 17" fill="none" xmlns="http://www.w3.org/2000/svg">
<path d="M8.5 0C13.1956 0 17 3.80444 17 8.5C17 13.1956 13.1956 17 8.5 17C3.80444 17 0 13.1956 0 8.5C0 3.80444 3.80444 0 8.5 0ZM12.4038 7.91734L7.75968 3.27319C7.4375 2.95101 6.91653 2.95101 6.59778 3.27319L6.01512 3.85585C5.69294 4.17802 5.69294 4.69899 6.01512 5.01774L9.49738 8.5L6.01512 11.9823C5.69294 12.3044 5.69294 12.8254 6.01512 13.1442L6.59778 13.7268C6.91996 14.049 7.44093 14.049 7.75968 13.7268L12.4038 9.08266C12.726 8.76048 12.726 8.23952 12.4038 7.91734Z" fill="#0D3733"/>
</svg>
